<svg width="79" height="79" viewBox="0 0 79 79" fill="none" xmlns="http://www.w3.org/2000/svg">
<circle cx="39.5" cy="39.5" r="39.5" fill="white"/>
<path d="M42.3938 20.8552C40.9952 19.7149 39.0048 19.7149 37.6062 20.8552L24.4312 31.5966C23.5264 32.3342 23 33.4493 23 34.628V54.1134C23 56.2599 24.7125 58 26.825 58H31.175C33.2875 58 35 56.2599 35 54.1134V45.5C35 44.1193 36.1193 43 37.5 43H42.5C43.8807 43 45 44.1193 45 45.5V54.1134C45 56.2599 46.7125 58 48.825 58H53.175C55.2875 58 57 56.2599 57 54.1134V34.628C57 33.4492 56.4736 32.3342 55.5688 31.5966L42.3938 20.8552Z" fill="#444444"/>
</svg>
