<svg fill="none" height="523" viewBox="0 0 773 523" width="773" xmlns="http://www.w3.org/2000/svg"><path d="m616.5 467.5 35.852 6.034c8.697 1.464 17.327-2.942 21.241-10.845l5.298-10.696c.901-1.818 2.073-3.489 3.476-4.954l3.227-3.37c3.773-3.941 8.991-6.169 14.446-6.169h1.009c6.267 0 12.173-2.938 15.953-7.938l6.182-8.177c2.17-2.87 5.075-5.102 8.407-6.459l15.159-6.176 24.549-10.521c7.394-3.169 12.169-10.459 12.121-18.503l-2.3-381.34662c-.066-10.99838-9.001-19.87938-20-19.87938h-803.0338c-10.6823 0-19.4789 8.3947-19.9781 19.06536l-18.8979 403.94164c-.1384 2.958.382 5.911 1.5235 8.643l29.9023 71.585c.9023 2.16 2.1769 4.145 3.7657 5.864l23.9024 25.867c6.0401 6.537 15.67285 8.296 23.63323 4.315l3.82627-1.913c1.64967-.825 3.40551-1.417 5.2176-1.761l12.126-2.3c4.4619-.846 8.503-3.186 11.4585-6.634l9.1544-10.68c2.78-3.243 6.5255-5.511 10.6879-6.472l10.2016-2.354c1.9164-.442 3.8877-.599 5.85-.466l23.4257 1.588c2.0639.14 4.1372-.041 6.1457-.537l152.075-37.538c1.919-.473 3.897-.66 5.87-.553l78.024 4.208z" fill="#76cadd" stroke="#afbca0" stroke-width="5"/></svg>